<?xml version="1.0" encoding="utf-8"?>
<!-- Generator: Adobe Illustrator 25.0.1, SVG Export Plug-In . SVG Version: 6.00 Build 0)  -->
<svg version="1.1" id="Capa_1" xmlns="http://www.w3.org/2000/svg" xmlns:xlink="http://www.w3.org/1999/xlink" x="0px" y="0px"
	 viewBox="0 0 820 86" style="enable-background:new 0 0 820 86;" xml:space="preserve">
<style type="text/css">
	.st0{fill:#FFFFFF;fill-opacity:0.5;}
	.st1{fill:#F6F6F6;}
</style>
<g>
	<path class="st0" d="M1050,66.3c-3.8,0-7.6,0.3-11.4,0.8c-18.3-32.6-59.6-44.2-92.2-25.9c-3.5,2-6.9,4.3-10,6.9
		C913.7,6.4,861.5-9.1,819.8,13.6c-14.2,7.7-25.9,19.3-33.8,33.3c-0.2,0.3-0.3,0.6-0.5,0.8c-12.2-1.4-23.7,5.9-27.7,17.5
		c-11.9-6.1-25.9-6.3-37.9-0.6c-21.7-30.4-64-37.5-94.4-15.7c-12.1,8.6-21,21-25.4,35.2c-10.8-9.3-24.3-15-38.5-16.2
		c-8.1-24.6-34.6-38-59.2-29.9c-14.3,4.7-25.5,16-30,30.3c-4.3-1.9-8.9-3.2-13.6-3.8C445.2,19,397.3-6.9,351.8,6.7
		c-17.1,5.1-32.2,15.4-43.2,29.4c-8.7-3.6-18.7-1.8-25.4,4.8c-23.1-24.8-61.9-26.2-86.7-3.1c-7.1,6.6-12.5,14.8-15.9,24
		c-26.7-10.1-56.9-0.4-72.8,23.3c-2.6-2.7-5.6-5.1-8.9-6.9c-0.4-0.2-0.8-0.4-1.2-0.7c-0.6-25.9-22-46.4-47.9-45.8
		C38.3,32,27.3,36.4,18.9,44.2C2.4,10.7-38.2-3.1-71.7,13.4c-21.9,11-36.3,32.7-37.6,57.1c-7-2.3-14.5-2.8-21.8-1.6
		c-14.1-21.7-43.2-28-64.9-13.9c-5.6,3.6-10.3,8.4-13.9,14c-6.6-1.7-13.3-2.6-20.1-2.6c-0.1,0,0,19.8,0,19.8h1280V66.3z"/>
	<path class="st1" d="M-214.4,86.2H1050V48.7c-3.6,1.1-7.1,2.5-10.4,4.4c-6.3,3.6-11.8,8.5-16,14.5c-8.1-1.5-16.4-0.9-24.2,1.7
		c-3.2-39-37.3-68.1-76.4-64.9c-24.8,2-46.8,16.9-57.9,39.3c-19.9-18.5-51-17.3-69.4,2.6c-8.2,8.8-12.8,20.3-13.1,32.3
		c-0.4,0.2-0.9,0.4-1.3,0.7c-3.5,1.9-6.6,4.4-9.4,7.2c-16.6-24.9-48.2-35-76.2-24.4c-12.2-33.4-49.1-50.6-82.5-38.4
		c-9.5,3.5-18.1,9.1-25,16.5c-7.1-6.9-17.5-8.8-26.6-5c-30.4-39.3-87-46.3-126.2-15.8c-14.8,11.5-25.6,27.4-31,45.4
		c-4.9,0.6-9.7,1.9-14.2,3.9c-8.2-25.9-35.8-40.2-61.7-32c-15,4.8-26.9,16.5-31.8,31.5c-14.9,1.3-29,7.2-40.3,17
		c-11.5-37.4-51.2-58.4-88.7-46.8C152.9,43,140,52.3,131,64.9c-12.6-6-27.3-5.7-39.7,0.6c-4.1-12.2-16.2-19.8-29-18.4
		c-0.2-0.3-0.3-0.6-0.5-0.9C37.4,2.9-17.6-12.4-60.9,12c-13.3,7.5-24.4,18.2-32.4,31.2c-36.9-24.5-86.7-14.5-111.3,22.4
		C-208.9,72-212.1,78.9-214.4,86.2z"/>
</g>
</svg>
